<svg id="Layer_2" data-name="Layer 2" xmlns="http://www.w3.org/2000/svg" viewBox="0 0 461.54 112.26"><defs><style>.cls-1{fill:#fff;}.cls-2{fill:#f2a444;stroke:#fbb03b;stroke-miterlimit:10;}</style></defs><title>InvertedLogo</title><path class="cls-1" d="M190.39,152.26a13.67,13.67,0,0,0-.25,1.65c0,10.66-.06,21.32,0,32,0,1.66-.51,2.23-2.15,2.15-2.35-.11-4.71-.12-7.06,0-1.61.08-2.05-.56-2-2.1.05-12.19,0-24.39,0-36.58q0-25.35.05-50.7c0-3.74,0-3.75,3.69-3.79,1.81,0,3.62,0,5.42,0,1.39-.08,1.83.5,1.78,1.82-.06,1.53,0,3.06.08,4.59,0,.51.14,1,.26,1.89l3.36-3.08a24.88,24.88,0,0,1,35.52,2.11c7.16,8.16,9.11,17.72,8,28.12a36.07,36.07,0,0,1-6,16.66,27.84,27.84,0,0,1-27.89,11.62,26.56,26.56,0,0,1-11.88-5.61C191.2,152.77,191,152.64,190.39,152.26Zm-.87-25.5c.48,3.17.7,6.42,1.49,9.51a16.47,16.47,0,0,0,7.36,10.47c9.45,5.67,21.27,1.65,25.65-8.75,2.81-6.69,2.92-13.57,1.18-20.59s-8.42-14.88-18.8-14c-6.59.59-11.17,3.72-14.05,9.51C190.21,117.29,189.76,122,189.52,126.76Z" transform="translate(-55.18 -75.8)"/><path class="cls-1" d="M296.33,142.74c0,2,0,3.7,0,5.36,0,5.17-.05,5.09-4.83,7.13a41.17,41.17,0,0,1-21.2,3c-12.42-1.47-20.25-8.82-23.94-20.42a36.45,36.45,0,0,1,2.43-29.12c6.54-12.24,19.39-17.93,32.74-14.06,9.43,2.72,14.85,9.59,17.27,18.92a30.52,30.52,0,0,1,.8,13.31c-.23,1.26-.81,1.55-2,1.55q-19.92,0-39.86,0c-2.3,0-2.47.15-2.12,2.4a20.83,20.83,0,0,0,22.8,17.81,35.17,35.17,0,0,0,16.1-5.05C294.93,143.38,295.39,143.21,296.33,142.74Zm-24-22.76v0H287c1.08,0,1.95-.11,1.93-1.56-.15-10.91-8.27-18-19.3-16-7.94,1.44-12.74,9.5-13.58,15.92-.17,1.3.47,1.61,1.6,1.61C262.52,120,267.44,120,272.36,120Z" transform="translate(-55.18 -75.8)"/><path class="cls-1" d="M430.06,126.32c-.17,9.91-3.36,18.54-10.9,25.25a27.37,27.37,0,0,1-16,6.92c-7.43.7-14.36-.68-20.54-5.08A29.91,29.91,0,0,1,370.42,135c-2.17-9.92-1.2-19.56,4.6-28.19a29,29,0,0,1,22.13-13.31c1.09-.11,1.5.29,1.47,1.35q-.08,3.69-.08,7.39c0,1-.51,1.33-1.48,1.5-7.61,1.31-12.63,5.83-15,13A27.89,27.89,0,0,0,383,138a18.35,18.35,0,0,0,21.66,10.26c6.15-1.74,10.28-6,12.44-11.89,2.89-7.94,2.59-15.87-1.52-23.32a17.86,17.86,0,0,0-12.28-9.09c-1.2-.26-1.67-.74-1.64-2,.06-2.3,0-4.6,0-6.89,0-1.21.36-1.73,1.63-1.53,10.5,1.64,18.21,7.07,23.09,16.62A34,34,0,0,1,430.06,126.32Z" transform="translate(-55.18 -75.8)"/><path class="cls-1" d="M511.8,108l-1.8-1c-5-2.81-10.22-4.81-16.1-3.59-4.11.86-6.75,3.76-6.54,7.44a7.88,7.88,0,0,0,1.56,4.14c2,2.52,4.88,3.77,7.72,5.09,4.46,2.08,8.94,4.12,13.24,6.48A12.85,12.85,0,0,1,516,134.7c2.18,7.91-.74,16-7,19.9-5.55,3.46-11.55,4.4-18,3.66a32.82,32.82,0,0,1-12.86-4.12c-.64-.37-1.46-1.11-1.49-1.72-.15-3-.07-6.1-.07-9.64l5.5,3c5,2.82,10.33,4.5,16.18,3.4,4.56-.86,7.36-3.85,7.65-7.95a6.79,6.79,0,0,0-3.86-6.72,114.59,114.59,0,0,0-10.54-4.9c-5-2.11-9.7-4.69-12.75-9.35-4.5-6.87-2.26-17.1,4.65-22.48,4.55-3.53,9.75-4.45,15.31-4.16A33.65,33.65,0,0,1,510.68,97a2.49,2.49,0,0,1,1.7,2.65c-.07,2.71,0,5.43,0,8.14Z" transform="translate(-55.18 -75.8)"/><path class="cls-1" d="M115.78,95.05c2.55,0,5.12.2,7.64,0,3.2-.33,5.22.84,7,3.52,8.76,13.07,17.72,26,26.57,39,3.63,5.33,7.2,10.71,10.77,16.08.78,1.16,1.46,2.4,2.36,3.88-1.1.13-1.89.28-2.67.29-2.95,0-5.91.1-8.85-.1a3.54,3.54,0,0,1-2.24-1.54c-3.08-4.51-6-9.1-9.07-13.65-1.3-2-2.67-3.87-3.95-5.84-.77-1.18-1.37-1-2.06.05-4.28,6.33-8.61,12.64-12.82,19a3.73,3.73,0,0,1-3.69,2c-3.31-.16-6.64,0-10.33,0a17.61,17.61,0,0,1,.89-1.73q9.89-14.49,19.82-28.94a1.87,1.87,0,0,0,0-2.39L123,106.55c-2.47-3.66-5-7.3-7.44-11Z" transform="translate(-55.18 -75.8)"/><path class="cls-1" d="M449.91,104.34c.79-.88,1.28-1.33,1.66-1.87,2.6-3.66,5.77-6.64,10.21-7.78a37.4,37.4,0,0,1,6.79-.83A1.66,1.66,0,0,1,469.76,95c.11,3.11.12,6.23,0,9.34,0,.39-.88,1-1.4,1.07-1.84.21-3.72.08-5.55.33-6.5.9-10.12,5.11-11.76,11.07a37.07,37.07,0,0,0-1.11,9c-.15,9.83-.08,19.67-.11,29.51,0,2.23-.13,2.25-2.35,2.19s-4.7,0-7.05,0c-1.11,0-1.5-.38-1.5-1.54q0-29,0-57.88c0-.6,0-1.21,0-1.81,0-1,.45-1.45,1.49-1.45,2.57,0,5.14,0,7.7,0,1.16,0,1.53.46,1.5,1.57-.06,1.91,0,3.83,0,5.74C449.63,102.7,449.76,103.25,449.91,104.34Z" transform="translate(-55.18 -75.8)"/><path class="cls-1" d="M320.38,104.26c1.5-1.67,2.82-3.24,4.23-4.72a18,18,0,0,1,14.31-5.67c1.13,0,1.57.49,1.57,1.58,0,2.84,0,5.69.06,8.53,0,1.16-.49,1.44-1.59,1.47a30.57,30.57,0,0,0-7,.58c-7.22,2-10.61,7.36-11.43,14.42a105.17,105.17,0,0,0-.37,11.79c0,7.59,0,15.19,0,22.79,0,2.42-.07,2.5-2.45,2.53-2.14,0-4.27-.07-6.4,0-1.5.06-2-.49-2-2,.06-12.35,0-24.7.05-37.06,0-7.16.06-14.32,0-21.48,0-1.63.46-2.26,2.14-2.17,2.23.12,4.48.09,6.72,0,1.29,0,1.71.49,1.69,1.75,0,2.18.07,4.36.14,6.55A6,6,0,0,0,320.38,104.26Z" transform="translate(-55.18 -75.8)"/><path class="cls-1" d="M360.21,126.37c0,9.73,0,19.46,0,29.2,0,1.4-.4,2-1.86,1.93-2.4-.08-4.81-.07-7.21,0-1.22,0-1.77-.36-1.77-1.69q.08-29.53.06-59.06c0-1.31.37-1.89,1.77-1.85,2.35.07,4.7,0,7-.06,1.5-.06,2,.52,2,2-.05,9.84,0,19.68,0,29.53Z" transform="translate(-55.18 -75.8)"/><path class="cls-1" d="M168.81,95.11c-2.11,3.19-4,6.07-5.89,8.9-4.12,6-8.28,12.06-12.42,18.08-.93,1.36-1.26,1.39-2.23,0-1.45-2-2.86-4.13-4.28-6.2a2.56,2.56,0,0,1,.1-3.28c3.74-5.44,7.4-10.94,11-16.46a2.62,2.62,0,0,1,2.53-1.38c3.12.09,6.23.08,9.35.13C167.47,94.93,167.93,95,168.81,95.11Z" transform="translate(-55.18 -75.8)"/><path class="cls-1" d="M107.87,108.74c-3.08-6.92-8.07-12-15.32-14.06-15.18-4.25-28.41,2.89-34.2,16.16a39,39,0,0,0-1.89,25.41,28.56,28.56,0,0,0,11.47,17.22,29.26,29.26,0,0,0,16.49,5.18,43.71,43.71,0,0,0,20.3-4.44c.86-.42,2.11-1.2,2.17-1.89.24-3,.1-6.09.1-9.56-1.11.57-1.94,1-2.72,1.41a34.75,34.75,0,0,1-15.07,4.64c-12.06.8-21-6.06-22.81-17.62-.42-2.61-.26-2.76,2.45-2.76,13.07,0,26.14,0,39.21.09,1.37,0,1.91-.41,2.09-1.8A33.06,33.06,0,0,0,107.87,108.74Zm-8.39,9.86c-.1,1.24-.8,1.37-1.76,1.37-4.92,0-9.83,0-14.75,0v0c-4.8,0-9.61,0-14.42,0-1.19,0-1.9-.33-1.71-1.7,1.85-13.23,13.42-19.44,24.4-14.41C96.6,106.35,99.94,112.66,99.48,118.6Z" transform="translate(-55.18 -75.8)"/><ellipse class="cls-2" cx="299.65" cy="6.46" rx="6.81" ry="5.96"/></svg>